<svg width="400" height="400" viewBox="0 0 400 400" fill="none" xmlns="http://www.w3.org/2000/svg">
<path d="M50 72.5V150H150V50H72.5C57.5 50 50 58.5 50 72.5Z" stroke="black" stroke-width="50"/>
<path d="M327.5 50H250V100V150H350V72.5C350 57.5 341.5 50 327.5 50Z" stroke="black" stroke-width="50"/>
<path d="M50 325.5V248H150V348H72.5C57.5 348 50 339.5 50 325.5Z" stroke="black" stroke-width="50"/>
<rect width="50" height="50" transform="matrix(-1 0 0 1 350 299)" fill="black"/>
<rect width="50" height="50" transform="matrix(-1 0 0 1 275 299)" fill="black"/>
<rect width="50" height="50" transform="matrix(-1 0 0 1 275 224)" fill="black"/>
</svg>
